{
  "accessors": [
    {
      "name": "AM84_026_04_1.1-Mesh_0_positions",
      "componentType": 5126,
      "count": 14138,
      "min": [
        -1029.6783447265625,
        -112.85780334472656,
        -249.2245330810547
      ],
      "max": [
        961.6126098632812,
        379.76849365234375,
        183.7063751220703
      ],
      "type": "VEC3",
      "bufferView": 0,
      "byteOffset": 0
    },
    {
      "name": "AM84_026_04_1.1-Mesh_0_normals",
      "componentType": 5126,
      "count": 14138,
      "min": [
        -1,
        -1,
        -1
      ],
      "max": [
        1,
        1,
        1
      ],
      "type": "VEC3",
      "bufferView": 1,
      "byteOffset": 0
    },
    {
      "name": "AM84_026_04_1.1-Mesh_0_texcoords",
      "componentType": 5126,
      "count": 14138,
      "min": [
        0.006490820553153753,
        0.006480872631072998
      ],
      "max": [
        0.9935091733932495,
        0.9935190677642822
      ],
      "type": "VEC2",
      "bufferView": 2,
      "byteOffset": 0
    },
    {
      "name": "AM84_026_04_1.1-Mesh_0_indices",
      "componentType": 5123,
      "count": 42183,
      "min": [
        0
      ],
      "max": [
        14137
      ],
      "type": "SCALAR",
      "bufferView": 3,
      "byteOffset": 0
    }
  ],
  "asset": {
    "generator": "obj2gltf",
    "version": "2.0"
  },
  "buffers": [
    {
      "name": "weixing",
      "byteLength": 919256,
      "uri": "data:application/octet-stream;base64,"
    }
  ],
  "bufferViews": [
    {
      "name": "bufferView_0",
      "buffer": 0,
      "byteLength": 169656,
      "byteOffset": 0,
      "byteStride": 12,
      "target": 34962
    },
    {
      "name": "bufferView_1",
      "buffer": 0,
      "byteLength": 169656,
      "byteOffset": 169656,
      "byteStride": 12,
      "target": 34962
    },
    {
      "name": "bufferView_2",
      "buffer": 0,
      "byteLength": 113104,
      "byteOffset": 339312,
      "byteStride": 8,
      "target": 34962
    },
    {
      "name": "bufferView_3",
      "buffer": 0,
      "byteLength": 84368,
      "byteOffset": 452416,
      "target": 34963
    },
    {
      "buffer": 0,
      "byteOffset": 536784,
      "byteLength": 382470
    }
  ],
  "images": [
    {
      "name": "AM84_026_04_1",
      "mimeType": "image/jpeg",
      "bufferView": 4
    }
  ],
  "materials": [
    {
      "name": "AM84_026_04_1",
      "pbrMetallicRoughness": {
        "baseColorTexture": {
          "index": 0
        },
        "baseColorFactor": [
          1,
          1,
          1,
          1
        ],
        "metallicFactor": 0,
        "roughnessFactor": 0.95
      },
      "emissiveFactor": [
        0,
        0,
        0
      ],
      "alphaMode": "OPAQUE",
      "doubleSided": false
    }
  ],
  "meshes": [
    {
      "name": "AM84_026_04_1.1-Mesh",
      "primitives": [
        {
          "attributes": {
            "POSITION": 0,
            "NORMAL": 1,
            "TEXCOORD_0": 2
          },
          "indices": 3,
          "material": 0,
          "mode": 4
        }
      ]
    }
  ],
  "nodes": [
    {
      "name": "AM84_026_04_1.1",
      "mesh": 0
    }
  ],
  "samplers": [
    {
      "magFilter": 9729,
      "minFilter": 9986,
      "wrapS": 10497,
      "wrapT": 10497
    }
  ],
  "scene": 0,
  "scenes": [
    {
      "nodes": [
        0
      ]
    }
  ],
  "textures": [
    {
      "name": "AM84_026_04_1",
      "sampler": 0,
      "source": 0
    }
  ]
}
